<?xml version="1.0" encoding="UTF-8" standalone="no"?>
<svg
   xmlns:dc="http://purl.org/dc/elements/1.1/"
   xmlns:cc="http://creativecommons.org/ns#"
   xmlns:rdf="http://www.w3.org/1999/02/22-rdf-syntax-ns#"
   xmlns:svg="http://www.w3.org/2000/svg"
   xmlns="http://www.w3.org/2000/svg"
   viewBox="0 0 438.66666 158.66667"
   height="158.66667"
   width="438.66666"
   xml:space="preserve"
   id="svg2"
   version="1.1"><metadata
     id="metadata8"><rdf:RDF><cc:Work
         rdf:about=""><dc:format>image/svg+xml</dc:format><dc:type
           rdf:resource="http://purl.org/dc/dcmitype/StillImage" /></cc:Work></rdf:RDF></metadata><defs
     id="defs6"><clipPath
       id="clipPath18"
       clipPathUnits="userSpaceOnUse"><path
         id="path16"
         d="M 0,119 H 329 V 0 H 0 Z" /></clipPath></defs><g
     transform="matrix(1.3333333,0,0,-1.3333333,0,158.66667)"
     id="g10"><g
       id="g12"><g
         clip-path="url(#clipPath18)"
         id="g14"><g
           transform="translate(69.687,43.9688)"
           id="g20"><path
             id="path22"
             style="fill:#f15c19;fill-opacity:1;fill-rule:nonzero;stroke:none"
             d="M 0,0 V 0 C 0,-7.748 -13.245,-18.003 -24.724,-23.906 -36.424,-17.93 -49.522,-7.821 -49.522,0 V 56.444 H 0 Z m -63.65,70.61 v 0 V 0 c 0,-23.463 38.852,-39.548 38.852,-39.548 0,0 38.926,16.085 38.926,39.548 v 70.61 z" /></g><g
           transform="translate(284.8467,35.7051)"
           id="g24"><path
             id="path26"
             style="fill:#1b3162;fill-opacity:1;fill-rule:nonzero;stroke:none"
             d="m 0,0 v 0 13.945 h -3.9 v 1.771 l 3.973,0.885 v 7.747 l 4.415,0.296 v -8.19 h 6.77 V 13.945 H 4.488 V 0.59 c 0,-2.656 0.884,-3.763 2.87,-3.763 1.398,0 2.281,1.033 3.311,2.583 l 1.472,-1.107 C 10.375,-4.944 8.756,-6.05 5.666,-6.05 1.839,-6.05 0,-3.616 0,0" /></g><g
           transform="translate(125.5371,84.8447)"
           id="g28"><path
             id="path30"
             style="fill:#1b3162;fill-opacity:1;fill-rule:nonzero;stroke:none"
             d="M 0,0 V 0 L -3.973,11.51 H -4.341 L -8.756,0 Z m 0.957,-2.804 v 0 H -9.86 l -1.545,-4.206 c -1.251,-3.172 -1.766,-4.205 2.428,-5.017 V -14.24 H -19.72 v 2.213 c 3.311,0.812 3.973,2.287 5.371,5.903 l 9.566,24.127 h 3.459 L 8.021,-8.116 c 0.957,-2.73 1.839,-3.394 5.445,-3.911 V -14.24 H -0.957 v 2.213 c 4.195,0.295 4.636,1.328 3.9,3.615 z" /></g><g
           transform="translate(141.7993,76.2856)"
           id="g32"><path
             id="path34"
             style="fill:#1b3162;fill-opacity:1;fill-rule:nonzero;stroke:none"
             d="m 0,0 v 0 13.945 h -3.826 v 1.771 l 3.973,0.812 v 7.821 l 4.415,0.221 v -8.116 h 6.77 V 13.945 H 4.562 V 0.517 c 0,-2.657 0.81,-3.689 2.87,-3.689 1.324,0 2.208,1.032 3.311,2.582 l 1.472,-1.181 C 10.375,-4.943 8.83,-6.05 5.74,-6.05 1.84,-6.05 0,-3.615 0,0" /></g><g
           transform="translate(155.4126,72.9658)"
           id="g36"><path
             id="path38"
             style="fill:#1b3162;fill-opacity:1;fill-rule:nonzero;stroke:none"
             d="m 0,0 v 0 c 2.796,0 3.532,0.516 3.532,1.697 v 24.791 c 0,1.475 -0.883,2.361 -3.679,2.361 v 2.361 l 8.241,0.147 V 16.675 c 2.575,1.77 5.224,3.468 8.462,3.468 3.238,0 5.592,-2.435 5.592,-6.789 V 1.697 C 22.148,0.516 22.884,0 25.681,0 V -2.361 H 14.569 V 0 c 2.355,0 3.091,0.516 3.091,1.697 v 9.96 c 0,3.837 -1.398,4.944 -4.194,4.944 -2.134,0 -3.974,-0.886 -5.372,-1.697 V 1.697 C 8.094,0.516 8.683,0 11.111,0 V -2.361 H 0 Z" /></g><g
           transform="translate(196.8403,76.3599)"
           id="g40"><path
             id="path42"
             style="fill:#1b3162;fill-opacity:1;fill-rule:nonzero;stroke:none"
             d="M 0,0 V 0 5.459 C -6.77,3.91 -8.021,2.951 -8.021,0.147 c 0,-1.549 0.81,-3.099 3.312,-3.099 1.986,0 3.679,1.402 4.709,2.952 m -13.098,-0.959 v 0 c 0,1.918 0.956,3.91 2.943,5.017 C -6.476,6.124 -0.736,6.936 0,7.525 v 1.329 c 0,4.058 -1.104,5.607 -4.268,5.607 -1.545,0 -2.355,-0.369 -3.164,-0.959 0.368,-0.812 0.515,-1.623 0.515,-2.287 0,-1.476 -0.957,-2.73 -2.576,-2.73 -1.765,0 -2.796,1.328 -2.796,2.73 0,3.32 4.121,5.534 8.683,5.534 5.078,0 8.168,-2.288 8.168,-6.936 V -0.443 c 0,-2.361 0.147,-3.099 3.385,-2.73 l 0.147,-1.845 c -1.692,-0.59 -2.722,-0.885 -3.973,-0.885 -2.576,0 -3.459,0.885 -3.68,3.689 H 0 c -1.914,-2.14 -4.121,-3.836 -6.991,-3.836 -4.047,0 -6.107,2.287 -6.107,5.091" /></g><g
           transform="translate(223.4038,82.1885)"
           id="g44"><path
             id="path46"
             style="fill:#1b3162;fill-opacity:1;fill-rule:nonzero;stroke:none"
             d="m 0,0 v 0 c 0,4.722 -2.354,7.969 -5.813,7.969 -2.134,0 -3.679,-0.664 -5.298,-2.066 V -6.198 c 1.177,-2.287 3.017,-3.394 5.445,-3.394 C -1.692,-9.592 0,-6.124 0,0 m -15.673,-7.895 v 0 25.16 c 0,1.402 -0.883,2.288 -3.68,2.361 v 2.361 l 8.242,0.148 V 8.116 c 1.766,1.623 3.826,2.951 6.843,2.951 5.887,0 9.272,-4.574 9.272,-10.846 0,-6.492 -4.121,-12.174 -10.523,-12.174 -2.648,0 -4.856,0.959 -6.917,2.509 l -1.545,-2.804 h -1.839 z" /></g><g
           transform="translate(244.1548,76.3599)"
           id="g48"><path
             id="path50"
             style="fill:#1b3162;fill-opacity:1;fill-rule:nonzero;stroke:none"
             d="M 0,0 V 0 5.459 C -6.696,3.91 -7.947,2.951 -7.947,0.147 c 0,-1.549 0.809,-3.099 3.311,-3.099 1.913,0 3.606,1.402 4.636,2.952 m -13.024,-0.959 v 0 c 0,1.918 0.882,3.91 2.943,5.017 C -6.402,6.124 -0.663,6.936 0,7.525 v 1.329 c 0,4.058 -1.104,5.607 -4.194,5.607 -1.546,0 -2.429,-0.369 -3.238,-0.959 0.441,-0.812 0.515,-1.623 0.515,-2.287 0,-1.476 -0.883,-2.73 -2.576,-2.73 -1.692,0 -2.796,1.328 -2.796,2.73 0,3.32 4.121,5.534 8.757,5.534 5.004,0 8.094,-2.288 8.094,-6.936 V -0.443 c 0,-2.361 0.221,-3.099 3.385,-2.73 l 0.22,-1.845 c -1.765,-0.59 -2.722,-0.885 -4.046,-0.885 -2.576,0 -3.385,0.885 -3.68,3.689 H 0 c -1.914,-2.14 -4.121,-3.836 -6.991,-3.836 -4.047,0 -6.033,2.287 -6.033,5.091" /></g><g
           transform="translate(254.6772,77.6138)"
           id="g52"><path
             id="path54"
             style="fill:#1b3162;fill-opacity:1;fill-rule:nonzero;stroke:none"
             d="m 0,0 v 0 h 1.987 c 2.281,-3.468 4.341,-5.091 7.138,-5.091 2.207,0 3.384,1.328 3.384,2.878 0,2.066 -1.398,3.246 -5.445,4.353 -4.93,1.254 -6.843,3.394 -6.843,6.419 0,4.206 3.164,7.083 7.946,7.083 1.546,0 3.312,-0.664 4.269,-1.402 l 0.882,1.402 h 1.693 v -6.64 h -1.987 c -1.692,2.804 -3.09,4.353 -5.445,4.353 -2.355,0 -3.605,-1.254 -3.605,-2.952 0,-1.918 1.692,-2.877 5.297,-3.836 4.783,-1.328 6.77,-3.173 6.77,-6.493 0,-4.058 -2.428,-7.452 -7.652,-7.452 -2.061,0 -4.121,0.737 -5.372,1.771 L 1.692,-7.378 H 0 Z" /></g><g
           transform="translate(273.3677,81.5244)"
           id="g56"><path
             id="path58"
             style="fill:#1b3162;fill-opacity:1;fill-rule:nonzero;stroke:none"
             d="m 0,0 v 0 c 0,6.714 4.93,11.731 10.964,11.731 4.93,0 8.094,-2.656 8.094,-5.607 0,-1.918 -1.251,-3.541 -2.943,-3.541 -1.619,0 -2.797,1.106 -2.797,2.508 0,1.328 0.884,2.287 1.546,2.657 -0.442,0.737 -2.061,1.549 -3.827,1.549 -3.605,0 -6.107,-2.066 -6.107,-8.264 0,-5.755 2.355,-9.37 7.064,-9.37 2.723,0 4.709,1.549 6.402,3.467 L 19.72,-6.198 C 17.66,-9.149 15.231,-11.289 10.449,-11.289 4.121,-11.289 0,-6.419 0,0" /></g><g
           transform="translate(308.6875,76.3599)"
           id="g60"><path
             id="path62"
             style="fill:#1b3162;fill-opacity:1;fill-rule:nonzero;stroke:none"
             d="M 0,0 V 0 5.459 C -6.77,3.91 -8.021,2.951 -8.021,0.147 c 0,-1.549 0.81,-3.099 3.312,-3.099 1.913,0 3.605,1.402 4.709,2.952 m -13.098,-0.959 v 0 c 0,1.918 0.957,3.91 2.944,5.017 C -6.475,6.124 -0.736,6.936 0,7.525 v 1.329 c 0,4.058 -1.104,5.607 -4.268,5.607 -1.545,0 -2.428,-0.369 -3.164,-0.959 0.368,-0.812 0.442,-1.623 0.442,-2.287 0,-1.476 -0.883,-2.73 -2.502,-2.73 -1.766,0 -2.796,1.328 -2.796,2.73 0,3.32 4.047,5.534 8.683,5.534 5.003,0 8.094,-2.288 8.094,-6.936 V -0.443 c 0,-2.361 0.22,-3.099 3.385,-2.73 l 0.22,-1.845 c -1.765,-0.59 -2.722,-0.885 -3.973,-0.885 -2.576,0 -3.458,0.885 -3.679,3.689 H 0 c -1.913,-2.14 -4.194,-3.836 -6.99,-3.836 -4.048,0 -6.108,2.287 -6.108,5.091" /></g><g
           transform="translate(111.3354,39.6895)"
           id="g64"><path
             id="path66"
             style="fill:#1b3162;fill-opacity:1;fill-rule:nonzero;stroke:none"
             d="m 0,0 v 0 17.782 c 0,1.475 -1.104,1.918 -5.151,2.066 v 2.36 H 9.713 v -2.36 C 5.372,19.7 4.93,19.405 4.93,17.782 V 1.254 c 0,-6.124 3.091,-8.485 8.978,-8.485 2.649,0 4.488,0.885 5.886,2.287 1.619,1.624 2.06,3.763 2.06,7.379 v 12.174 c 0,4.427 -0.882,4.722 -5.445,5.386 v 2.213 H 29.287 V 19.995 C 24.945,19.257 24.725,19.036 24.725,14.609 V 0 c 0,-5.312 -4.415,-10.404 -12.289,-10.404 C 4.342,-10.404 0,-6.05 0,0" /></g><g
           transform="translate(141.5786,32.3848)"
           id="g68"><path
             id="path70"
             style="fill:#1b3162;fill-opacity:1;fill-rule:nonzero;stroke:none"
             d="m 0,0 v 0 c 2.796,0.074 3.532,0.516 3.532,1.697 v 13.428 c 0,1.402 -0.736,2.288 -3.532,2.361 v 2.288 l 7.947,0.221 v -3.32 c 2.575,1.771 5.298,3.468 8.536,3.468 3.311,0 5.666,-2.361 5.666,-6.715 V 1.697 C 22.149,0.516 22.811,0.074 25.681,0 V -2.288 H 14.496 V 0 c 2.502,0.074 3.09,0.516 3.09,1.697 v 9.961 c 0,3.91 -1.398,5.017 -4.12,5.017 -2.208,0 -3.974,-0.959 -5.372,-1.771 V 1.697 C 8.094,0.516 8.683,0.074 11.111,0 V -2.288 H 0 Z" /></g><g
           transform="translate(172.3369,60.4961)"
           id="g72"><path
             id="path74"
             style="fill:#1b3162;fill-opacity:1;fill-rule:nonzero;stroke:none"
             d="m 0,0 v 0 c 0,1.845 1.25,3.173 3.017,3.173 1.766,0 3.017,-1.181 3.017,-3.026 0,-1.844 -1.251,-3.098 -3.017,-3.098 C 1.25,-2.951 0,-1.844 0,0 m -2.649,-28.111 v 0 c 2.796,0.073 3.532,0.516 3.532,1.696 v 13.429 c 0,1.476 -0.736,2.288 -3.532,2.361 v 2.288 l 8.021,0.221 v -18.299 c 0,-1.18 0.662,-1.623 3.531,-1.696 v -2.287 H -2.649 Z" /></g><g
           transform="translate(185.6553,47.0674)"
           id="g76"><path
             id="path78"
             style="fill:#1b3162;fill-opacity:1;fill-rule:nonzero;stroke:none"
             d="M 0,0 V 0 C -0.809,2.066 -1.545,2.656 -3.752,3.025 V 5.239 H 7.285 V 3.025 C 5.004,2.73 4.268,2.435 4.268,1.697 4.268,1.402 4.415,1.181 4.562,0.738 L 9.125,-11.51 h 0.588 l 4.047,10.477 c 0.295,0.812 0.442,1.476 0.442,1.992 0,1.033 -0.736,1.624 -2.576,2.066 v 2.214 h 8.757 V 3.025 C 18.911,2.73 17.734,1.918 16.704,-0.369 L 9.713,-17.265 H 6.77 Z" /></g><g
           transform="translate(211.9248,43.3784)"
           id="g80"><path
             id="path82"
             style="fill:#1b3162;fill-opacity:1;fill-rule:nonzero;stroke:none"
             d="M 0,0 V 0 L 10.007,0.221 C 10.081,4.206 8.683,7.231 5.298,7.231 2.649,7.231 0.441,5.534 0,0 m -4.93,-2.435 v 0 c 0,6.641 4.342,11.732 10.596,11.732 7.064,0 9.492,-5.682 9.125,-11.215 L 0,-1.845 v -0.147 c 0,-4.87 2.355,-8.78 7.064,-8.78 2.723,0 4.857,1.549 6.77,3.984 l 1.324,-1.328 c -1.766,-3.026 -4.636,-5.608 -9.492,-5.608 -6.77,0 -10.596,4.944 -10.596,11.289" /></g><g
           transform="translate(229.2905,32.3848)"
           id="g84"><path
             id="path86"
             style="fill:#1b3162;fill-opacity:1;fill-rule:nonzero;stroke:none"
             d="m 0,0 v 0 c 2.87,0.074 3.532,0.516 3.532,1.697 v 13.428 c 0,1.402 -0.662,2.288 -3.532,2.361 v 2.288 l 8.021,0.221 v -3.763 c 1.692,2.14 3.679,3.911 6.181,3.911 2.428,0 3.679,-1.697 3.679,-3.763 0,-1.549 -1.177,-2.878 -2.649,-2.878 -1.472,0 -2.796,0.738 -2.796,2.582 0,0.222 0.073,0.517 0.073,0.812 C 10.375,16.97 9.125,15.568 8.094,14.314 V 1.697 C 8.094,0.516 8.978,0.074 12.142,0 V -2.288 H 0 Z" /></g><g
           transform="translate(248.7905,37.1069)"
           id="g88"><path
             id="path90"
             style="fill:#1b3162;fill-opacity:1;fill-rule:nonzero;stroke:none"
             d="m 0,0 v 0 h 2.06 c 2.208,-3.542 4.268,-5.165 7.065,-5.165 2.28,0 3.458,1.402 3.458,2.877 0,2.067 -1.472,3.321 -5.519,4.354 -4.856,1.328 -6.77,3.394 -6.77,6.419 0,4.206 3.091,7.083 7.873,7.083 1.546,0 3.386,-0.664 4.342,-1.402 l 0.809,1.402 h 1.766 v -6.64 h -1.986 c -1.693,2.877 -3.091,4.353 -5.519,4.353 -2.355,0 -3.532,-1.18 -3.532,-2.878 0,-1.918 1.619,-2.951 5.224,-3.91 4.857,-1.255 6.77,-3.173 6.77,-6.493 0,-4.058 -2.354,-7.452 -7.579,-7.452 -2.06,0 -4.121,0.738 -5.372,1.77 L 1.766,-7.452 H 0 Z" /></g><g
           transform="translate(271.1602,60.4961)"
           id="g92"><path
             id="path94"
             style="fill:#1b3162;fill-opacity:1;fill-rule:nonzero;stroke:none"
             d="M 0,0 V 0 C 0,1.845 1.25,3.173 3.017,3.173 4.783,3.173 5.96,1.992 5.96,0.147 5.96,-1.697 4.783,-2.951 3.017,-2.951 1.25,-2.951 0,-1.844 0,0 m -2.649,-28.111 v 0 c 2.796,0.073 3.458,0.516 3.458,1.696 v 13.429 c 0,1.476 -0.662,2.288 -3.458,2.361 v 2.288 l 8.021,0.221 v -18.299 c 0,-1.18 0.588,-1.623 3.458,-1.696 v -2.287 H -2.649 Z" /></g><g
           transform="translate(302.2861,46.9937)"
           id="g96"><path
             id="path98"
             style="fill:#1b3162;fill-opacity:1;fill-rule:nonzero;stroke:none"
             d="M 0,0 V 0 C -0.957,2.066 -1.545,2.73 -3.753,3.099 V 5.312 H 7.285 V 3.099 C 4.341,2.804 3.9,2.14 4.562,0.59 l 4.93,-11.879 4.121,9.887 c 1.103,2.656 0.515,3.985 -1.987,4.501 v 2.213 h 9.051 V 3.099 C 18.69,2.804 17.439,1.697 16.556,-0.59 L 8.903,-18.962 c -2.722,-6.272 -4.93,-7.895 -7.946,-7.895 -2.355,0 -4.122,1.623 -4.122,3.689 0,1.402 1.031,2.952 2.797,2.952 1.545,0 2.722,-1.328 2.722,-2.878 0,-0.369 -0.073,-0.812 -0.147,-1.033 1.545,0.148 2.943,2.435 4.93,7.009 l 0.148,0.369 z" /></g></g></g></g></svg>